<?xml version="1.0" standalone="no"?>
<!DOCTYPE svg PUBLIC "-//W3C//DTD SVG 20010904//EN"
 "http://www.w3.org/TR/2001/REC-SVG-20010904/DTD/svg10.dtd">
<svg version="1.0" xmlns="http://www.w3.org/2000/svg"
 width="200.000000pt" height="200.000000pt" viewBox="0 0 200.000000 200.000000"
 preserveAspectRatio="xMidYMid meet">
<metadata>
Created by potrace 1.14, written by Peter Selinger 2001-2017
</metadata>
<g transform="translate(0.000000,200.000000) scale(0.100000,-0.100000)"
fill="#000000" stroke="none">
<path d="M898 1995 c-1 -1 -25 -6 -53 -10 -118 -15 -292 -93 -403 -179 -305
-238 -423 -643 -295 -1015 14 -41 38 -96 54 -123 16 -27 29 -51 29 -55 0 -23
151 -186 230 -247 129 -100 344 -175 510 -177 131 -2 201 10 227 37 23 25 49
33 38 12 -4 -7 1 -4 9 6 9 11 16 16 16 12 0 -5 6 -3 13 3 11 8 16 5 25 -14 16
-35 67 -58 115 -52 78 11 124 69 129 165 2 38 7 51 16 47 7 -3 10 0 7 5 -9 15
37 50 56 44 34 -10 161 160 213 284 42 100 68 225 70 342 2 58 -1 116 -5 130
-3 14 -12 54 -18 89 -7 35 -29 103 -50 150 -88 206 -234 358 -436 457 -127 62
-224 85 -372 89 -67 2 -123 2 -125 0z"/>
<path d="M806 51 c-19 -7 -19 -8 0 -13 13 -3 21 0 21 8 0 8 -1 14 -1 13 -1 0
-10 -4 -20 -8z"/>
<path d="M851 44 c0 -11 3 -14 6 -6 3 7 2 16 -1 19 -3 4 -6 -2 -5 -13z"/>
<path d="M956 47 c3 -10 9 -15 12 -12 3 3 0 11 -7 18 -10 9 -11 8 -5 -6z"/>
<path d="M1093 46 c0 -8 5 -12 10 -9 7 4 8 -1 3 -13 -6 -15 -5 -17 5 -6 11 10
10 15 -2 28 -14 13 -16 13 -16 0z"/>
<path d="M1196 47 c3 -10 9 -15 12 -12 3 3 0 11 -7 18 -10 9 -11 8 -5 -6z"/>
<path d="M1355 51 c-3 -5 -2 -12 3 -15 5 -3 9 1 9 9 0 17 -3 19 -12 6z"/>
<path d="M873 35 c0 -8 4 -12 9 -9 4 3 8 9 8 15 0 5 -4 9 -8 9 -5 0 -9 -7 -9
-15z"/>
<path d="M1030 39 c0 -5 5 -7 10 -4 6 3 10 8 10 11 0 2 -4 4 -10 4 -5 0 -10
-5 -10 -11z"/>
<path d="M1164 39 c-4 -7 -3 -9 4 -5 5 3 13 0 15 -6 4 -9 6 -10 6 -1 1 17 -16
25 -25 12z"/>
<path d="M788 12 c4 -10 7 -12 10 -4 2 7 9 9 15 5 7 -3 8 -2 4 2 -14 16 -36
14 -29 -3z"/>
<path d="M915 21 c-3 -5 -2 -12 3 -15 5 -3 9 1 9 9 0 17 -3 19 -12 6z"/>
<path d="M997 17 c4 -7 -1 -8 -13 -3 -15 6 -17 5 -6 -5 10 -11 15 -10 28 2 13
14 13 16 0 16 -8 0 -12 -5 -9 -10z"/>
</g>
</svg>
