<?xml version="1.0" standalone="no"?>
<!DOCTYPE svg PUBLIC "-//W3C//DTD SVG 20010904//EN"
 "http://www.w3.org/TR/2001/REC-SVG-20010904/DTD/svg10.dtd">
<svg version="1.0" xmlns="http://www.w3.org/2000/svg"
 width="1024.000000pt" height="1024.000000pt" viewBox="0 0 1024.000000 1024.000000"
 preserveAspectRatio="xMidYMid meet">
<metadata>
Created by potrace 1.14, written by Peter Selinger 2001-2017
</metadata>
<g transform="translate(0.000000,1024.000000) scale(0.100000,-0.100000)"
fill="#000000" stroke="none">
<path d="M5005 8995 c-171 -52 -308 -202 -330 -361 -3 -27 -6 -153 -7 -280 0
-166 -3 -231 -12 -231 -6 -1 -65 -4 -131 -7 -66 -3 -138 -8 -160 -11 -22 -2
-82 -7 -134 -10 -51 -4 -103 -8 -114 -11 -12 -2 -51 -6 -88 -9 -36 -3 -75 -7
-87 -10 -11 -2 -45 -6 -74 -9 -29 -4 -62 -8 -73 -10 -11 -2 -40 -7 -65 -10
-25 -3 -56 -8 -70 -10 -14 -3 -41 -7 -60 -10 -19 -3 -46 -8 -60 -11 -14 -3
-40 -8 -59 -11 -32 -5 -42 -7 -93 -19 -13 -3 -34 -7 -48 -10 -28 -5 -60 -12
-90 -20 -11 -3 -29 -7 -41 -10 -11 -2 -29 -7 -39 -10 -10 -3 -27 -7 -37 -9
-10 -2 -38 -10 -63 -17 -25 -7 -52 -14 -60 -15 -8 -2 -69 -22 -135 -44 -66
-23 -128 -43 -138 -45 -9 -2 -23 -7 -30 -12 -6 -4 -16 -8 -22 -9 -5 -1 -28
-10 -50 -19 -22 -10 -42 -19 -45 -20 -36 -11 -306 -144 -347 -170 -17 -11 -54
-33 -82 -50 -28 -16 -51 -33 -51 -37 0 -5 -7 -8 -15 -8 -8 0 -15 -4 -15 -10 0
-5 -4 -10 -10 -10 -8 0 -69 -43 -111 -79 -164 -138 -262 -244 -351 -376 -133
-197 -249 -477 -333 -805 -15 -58 -29 -111 -31 -118 -3 -10 -9 -10 -31 1 -16
8 -53 15 -83 16 -54 3 -64 6 -66 19 0 4 -4 18 -7 32 -12 45 -126 508 -131 532
-3 13 -10 41 -16 63 -12 45 -17 67 -26 110 -3 17 -12 53 -20 80 -13 47 -40
156 -49 200 -3 11 -7 29 -9 40 -4 17 -84 341 -142 573 -9 35 -17 71 -19 80 -2
9 -4 17 -5 17 -1 0 -3 10 -6 22 -4 21 -82 340 -100 408 -13 51 -14 85 -2 85
18 0 71 56 92 97 40 80 17 190 -55 256 -22 20 -44 37 -47 38 -4 0 -18 3 -32 7
-30 7 -107 7 -138 -1 -37 -10 -101 -66 -123 -109 -25 -49 -28 -138 -6 -189 20
-45 89 -108 127 -116 38 -7 48 -20 56 -69 3 -21 8 -42 11 -47 2 -4 7 -20 9
-35 3 -15 16 -70 30 -123 14 -53 26 -105 28 -115 2 -11 14 -57 26 -104 12 -47
24 -94 26 -105 4 -21 13 -59 19 -85 2 -8 4 -15 5 -15 1 0 3 -11 6 -23 2 -13
18 -78 35 -145 17 -67 33 -130 35 -139 2 -10 6 -26 8 -35 2 -10 18 -72 35
-138 16 -66 32 -131 35 -145 8 -42 36 -153 46 -185 5 -16 11 -43 14 -60 3 -16
14 -64 25 -105 11 -41 23 -90 26 -109 3 -19 10 -42 16 -52 5 -11 8 -19 6 -19
-3 0 17 -87 44 -192 26 -106 47 -193 46 -194 -1 -1 -20 -3 -42 -5 -49 -3 -87
-21 -119 -56 -29 -31 -37 -72 -38 -181 l0 -79 -162 2 c-174 2 -214 -4 -253
-38 -57 -49 -56 -47 -58 -492 -1 -375 1 -413 17 -447 10 -20 26 -42 35 -47 10
-6 14 -11 8 -11 -5 0 4 -8 20 -17 25 -13 62 -16 211 -17 l181 0 1 -99 c2 -119
23 -167 87 -200 22 -11 41 -19 43 -18 1 0 51 1 111 1 l109 0 2 -72 c3 -123 14
-294 25 -400 3 -27 7 -69 10 -95 9 -87 15 -138 19 -158 2 -11 7 -45 10 -76 4
-31 9 -67 12 -80 2 -13 7 -37 9 -54 3 -16 7 -41 10 -55 3 -14 7 -38 10 -55 2
-16 7 -41 10 -55 3 -14 10 -47 15 -75 20 -99 93 -365 117 -425 4 -8 7 -17 8
-20 13 -52 88 -236 115 -285 11 -19 18 -35 15 -35 -3 0 5 -17 17 -37 11 -21
31 -56 43 -78 43 -78 60 -105 68 -105 4 0 7 -7 7 -15 0 -8 5 -15 10 -15 6 0
10 -5 10 -11 0 -23 173 -212 246 -269 39 -31 141 -89 200 -113 141 -59 535
-169 774 -216 58 -11 119 -23 135 -26 49 -10 267 -46 305 -50 19 -2 64 -9 100
-14 84 -13 151 -21 225 -26 33 -3 71 -7 85 -10 89 -16 537 -47 870 -60 74 -3
191 -8 260 -11 162 -7 584 -7 725 0 61 3 182 8 270 11 88 3 180 8 205 10 25 2
97 7 160 10 63 4 133 8 155 10 22 2 76 6 120 9 81 7 132 12 218 21 26 3 71 7
100 10 54 6 114 13 157 20 14 2 50 7 80 10 30 4 64 8 75 10 44 6 102 16 125
20 14 3 41 7 60 10 34 4 68 9 120 20 14 3 48 9 75 15 28 5 61 12 75 15 14 3
36 7 50 10 37 7 71 15 150 34 25 7 56 14 70 17 14 2 34 8 45 11 11 4 25 8 30
9 24 4 105 27 160 45 33 10 65 20 70 20 6 1 33 10 60 21 28 11 58 21 67 23 22
5 171 74 178 83 3 4 17 14 31 22 42 24 97 70 159 135 50 51 72 77 127 150 144
189 329 639 397 965 3 14 15 68 26 120 27 122 26 116 35 175 4 28 9 59 11 70
2 11 6 36 8 55 3 19 8 51 11 70 2 19 8 57 11 85 3 27 8 61 10 75 1 14 6 59 9
100 3 41 8 95 11 120 3 40 11 166 18 315 2 28 4 53 4 58 1 4 49 7 107 7 115 0
147 9 187 54 33 37 42 74 41 181 l0 81 146 -1 c165 -1 199 5 242 43 52 47 54
63 53 502 -1 451 0 443 -70 497 -36 27 -37 27 -204 28 l-167 0 0 75 c1 88 -9
146 -29 174 -8 11 -14 17 -14 12 0 -5 -9 3 -21 17 -11 15 -23 26 -27 26 -4 -1
-9 0 -12 1 -3 2 -27 4 -55 5 -27 2 -58 3 -67 4 -10 1 -16 8 -14 19 2 9 7 44
10 77 4 33 9 67 11 75 2 8 7 42 10 75 3 33 7 67 10 75 3 8 7 40 10 70 2 30 7
66 10 80 3 14 8 50 11 80 6 63 9 89 17 145 6 40 13 93 23 170 2 22 7 51 9 65
3 14 7 48 10 76 3 28 7 59 9 70 2 10 7 48 11 84 4 36 9 74 11 84 2 11 6 42 9
70 3 28 8 62 10 76 2 14 6 48 10 75 3 28 8 61 10 75 2 14 6 48 10 75 3 28 8
61 10 75 2 14 6 46 9 73 3 26 9 68 12 95 3 26 12 90 19 142 8 52 17 124 21
160 3 36 9 68 13 71 3 3 25 11 48 18 23 6 49 18 57 26 8 8 19 15 25 15 6 0 11
4 11 10 0 5 9 17 20 28 22 21 49 115 43 152 -13 79 -56 141 -121 174 -71 36
-183 24 -236 -26 -11 -10 -24 -18 -28 -18 -5 0 -7 -4 -3 -9 3 -6 -1 -13 -8
-18 -22 -13 -44 -85 -42 -134 3 -57 28 -111 72 -152 33 -31 34 -33 27 -92 -3
-33 -7 -67 -9 -75 -2 -8 -6 -42 -10 -75 -9 -85 -29 -235 -41 -311 -3 -17 -6
-46 -9 -65 -12 -104 -16 -140 -25 -199 -13 -89 -20 -139 -26 -196 -2 -27 -6
-60 -9 -74 -6 -44 -14 -103 -21 -155 -3 -27 -8 -61 -10 -75 -2 -14 -6 -45 -8
-70 -3 -25 -8 -63 -11 -85 -4 -22 -8 -51 -10 -65 -2 -14 -7 -50 -10 -80 -3
-30 -8 -66 -10 -80 -4 -26 -12 -83 -20 -150 -3 -22 -7 -59 -10 -82 -3 -24 -8
-54 -10 -68 -2 -14 -7 -50 -10 -80 -4 -30 -8 -66 -10 -80 -2 -14 -7 -45 -10
-70 -9 -71 -11 -75 -52 -76 -21 -1 -48 -5 -60 -9 -21 -7 -32 8 -39 55 -1 8 -5
24 -8 35 -6 20 -24 88 -30 115 -3 8 -9 26 -14 40 -5 14 -10 28 -10 33 0 4 -13
45 -28 90 -16 45 -29 84 -29 87 -2 15 -48 126 -55 135 -5 5 -9 15 -10 20 -1 6
-7 21 -13 35 -6 14 -11 27 -12 30 0 3 -7 16 -15 30 -8 14 -15 27 -15 30 0 4
-49 90 -90 158 -15 26 -96 135 -116 157 -52 57 -169 174 -201 201 -21 17 -35
34 -31 37 3 4 1 7 -6 7 -7 0 -49 27 -94 59 -275 199 -630 360 -1042 472 -219
60 -595 134 -781 154 -64 6 -131 14 -169 20 -122 17 -397 36 -700 50 -33 2
-63 3 -67 4 -5 0 -8 104 -8 230 0 255 -7 309 -50 398 -27 55 -126 173 -144
173 -5 0 -21 9 -37 21 -16 11 -35 22 -42 23 -7 2 -19 6 -27 9 -54 20 -86 25
-156 25 -44 0 -97 -6 -119 -13z"/>
</g>
</svg>
